<svg width="110" height="110" viewBox="0 0 110 110" fill="none" xmlns="http://www.w3.org/2000/svg">
<path fill-rule="evenodd" clip-rule="evenodd" d="M67.752 44.0552C71.0292 44.0552 73.6859 46.7119 73.6859 49.9891L73.6859 96.2357L61.8181 96.2357L61.8181 49.9891C61.8181 46.7119 64.4748 44.0552 67.752 44.0552Z" fill="white"/>
<path fill-rule="evenodd" clip-rule="evenodd" d="M42.563 44.0552C45.8402 44.0552 48.4969 46.7119 48.4969 49.9891L48.4969 96.2357L36.6292 96.2357L36.6292 49.9891C36.6292 46.7119 39.2858 44.0552 42.563 44.0552Z" fill="white"/>
<path fill-rule="evenodd" clip-rule="evenodd" d="M30.7295 93.3086C36.4091 94.0218 43.9624 94.0385 55.1572 94.0385C66.352 94.0385 73.9052 94.0218 79.5848 93.3086C85.0402 92.6236 87.5006 91.4229 89.1507 89.9416C89.5783 89.5577 89.9849 89.151 90.3688 88.7234C91.8502 87.0734 93.0508 84.6129 93.7359 79.1576C94.4491 73.478 94.4657 65.9247 94.4657 54.7299C94.4657 43.5352 94.4491 35.9819 93.7359 30.3023C93.0508 24.847 91.8502 22.3865 90.3688 20.7364C89.9849 20.3088 89.5783 19.9022 89.1507 19.5183C87.5006 18.0369 85.0402 16.8363 79.5848 16.1512C73.9052 15.438 66.352 15.4214 55.1572 15.4214C43.9624 15.4214 36.4091 15.438 30.7295 16.1512C25.2742 16.8363 22.8138 18.0369 21.1637 19.5183C20.7361 19.9022 20.3294 20.3088 19.9456 20.7364C18.4642 22.3865 17.2635 24.847 16.5785 30.3023C15.8653 35.9819 15.8486 43.5352 15.8486 54.7299C15.8486 65.9247 15.8653 73.478 16.5785 79.1576C17.2635 84.6129 18.4642 87.0734 19.9456 88.7234C20.3294 89.151 20.7361 89.5577 21.1637 89.9416C22.8138 91.4229 25.2742 92.6236 30.7295 93.3086ZM13.2484 14.7241C6.84863 21.8527 6.84863 32.8118 6.84863 54.7299C6.84863 76.6481 6.84863 87.6072 13.2484 94.7358C13.8481 95.4038 14.4833 96.039 15.1513 96.6387C22.28 103.038 33.239 103.038 55.1572 103.038C77.0753 103.038 88.0344 103.038 95.1631 96.6387C95.831 96.039 96.4662 95.4038 97.0659 94.7358C103.466 87.6072 103.466 76.6481 103.466 54.7299C103.466 32.8118 103.466 21.8527 97.0659 14.7241C96.4662 14.0561 95.831 13.4209 95.1631 12.8212C88.0344 6.42139 77.0753 6.42139 55.1572 6.42139C33.239 6.42139 22.28 6.42139 15.1513 12.8212C14.4833 13.4209 13.8481 14.0561 13.2484 14.7241Z" fill="url(#paint0_linear_381_91)"/>
<defs>
<linearGradient id="paint0_linear_381_91" x1="78.5571" y1="6.42139" x2="78.5571" y2="102.698" gradientUnits="userSpaceOnUse">
<stop stop-color="#07060D"/>
<stop offset="0.95639" stop-color="#2C0DEE"/>
</linearGradient>
</defs>
</svg>
