<svg width="110" height="110" viewBox="0 0 110 110" fill="none" xmlns="http://www.w3.org/2000/svg">
<path fill-rule="evenodd" clip-rule="evenodd" d="M30.4172 93.2601C36.0848 93.9703 43.6208 93.9869 54.7901 93.9869C65.9593 93.9869 73.4953 93.9703 79.163 93.2601C84.6074 92.5779 87.0645 91.382 88.7125 89.9073C89.1537 89.5125 89.5726 89.0936 89.9674 88.6524C91.442 87.0044 92.638 84.5473 93.3202 79.1029C94.0303 73.4352 94.0469 65.8992 94.0469 54.73C94.0469 43.5608 94.0303 36.0248 93.3202 30.3571C92.638 24.9127 91.442 22.4556 89.9674 20.8076C89.5726 20.3664 89.1537 19.9475 88.7125 19.5527C87.0645 18.078 84.6074 16.8821 79.163 16.1999C73.4953 15.4897 65.9593 15.4731 54.7901 15.4731C43.6208 15.4731 36.0848 15.4897 30.4172 16.1999C24.9727 16.8821 22.5156 18.078 20.8676 19.5527C20.4265 19.9475 20.0075 20.3664 19.6128 20.8076C18.1381 22.4556 16.9422 24.9127 16.26 30.3571C15.5498 36.0248 15.5332 43.5608 15.5332 54.73C15.5332 65.8992 15.5498 73.4352 16.26 79.1029C16.9422 84.5473 18.1381 87.0044 19.6128 88.6524C20.0075 89.0936 20.4265 89.5125 20.8676 89.9073C22.5156 91.382 24.9727 92.5779 30.4172 93.2601ZM12.9059 14.8061C6.5332 21.9278 6.5332 32.8618 6.5332 54.73C6.5332 76.5982 6.5332 87.5322 12.9059 94.6539C13.5226 95.3431 14.177 95.9975 14.8661 96.6142C21.9878 102.987 32.9219 102.987 54.7901 102.987C76.6582 102.987 87.5923 102.987 94.714 96.6142C95.4031 95.9975 96.0575 95.3431 96.6742 94.6539C103.047 87.5322 103.047 76.5982 103.047 54.73C103.047 32.8618 103.047 21.9278 96.6742 14.8061C96.0575 14.1169 95.4031 13.4625 94.714 12.8459C87.5923 6.47314 76.6582 6.47314 54.7901 6.47314C32.9219 6.47314 21.9878 6.47314 14.8661 12.8459C14.177 13.4625 13.5226 14.1169 12.9059 14.8061Z" fill="url(#paint0_linear_381_102)"/>
<path fill-rule="evenodd" clip-rule="evenodd" d="M55.4716 47.4587C56.1057 46.854 56.826 46.1343 57.739 45.2213C58.652 44.3083 59.3717 43.588 59.9763 42.954C60.223 42.6953 60.4321 42.4701 60.6097 42.2727C60.4321 42.0753 60.223 41.8501 59.9764 41.5914C59.3717 40.9574 58.652 40.2371 57.739 39.3241C56.826 38.4111 56.1057 37.6914 55.4716 37.0867C55.213 36.84 54.9878 36.631 54.7904 36.4533C54.593 36.631 54.3678 36.84 54.1091 37.0867C53.475 37.6914 52.7547 38.4111 51.8418 39.3241C50.9288 40.2371 50.2091 40.9574 49.6044 41.5914C49.3577 41.8501 49.1487 42.0753 48.971 42.2727C49.1487 42.4701 49.3577 42.6953 49.6044 42.954C50.2091 43.588 50.9288 44.3083 51.8418 45.2213C52.7547 46.1343 53.475 46.854 54.1091 47.4587C54.3678 47.7054 54.593 47.9144 54.7904 48.0921C54.9878 47.9144 55.213 47.7054 55.4716 47.4587ZM58.6457 63.9982C57.9979 64.9055 57.625 65.7238 57.5196 66.5935C57.508 66.6889 57.4997 66.7849 57.4946 66.8817C57.4838 67.0854 57.4838 67.2896 57.4946 67.4933C57.4997 67.5901 57.508 67.6861 57.5196 67.7815C57.625 68.6512 57.9979 69.4695 58.6457 70.3768C59.5501 71.6434 60.9902 73.0835 62.9864 75.0797C66.5694 78.6627 68.3609 80.4542 70.5727 80.5715C70.7765 80.5823 70.9806 80.5823 71.1844 80.5715C73.3962 80.4542 75.1877 78.6627 78.7707 75.0797C82.3538 71.4967 84.1453 69.7051 84.2626 67.4933C84.2734 67.2896 84.2734 67.0854 84.2626 66.8817C84.1453 64.6699 82.3538 62.8784 78.7707 59.2953C75.1877 55.7123 73.3962 53.9208 71.1844 53.8035C70.9806 53.7927 70.7765 53.7927 70.5727 53.8035C69.6885 53.8504 68.8715 54.1648 67.9804 54.7543C67.8433 54.845 67.7045 54.9421 67.5635 55.0458C66.3272 55.9545 64.9168 57.3649 62.9864 59.2953C62.7156 59.5661 62.4551 59.8267 62.2047 60.078C60.6094 61.679 59.4274 62.9035 58.6457 63.9982ZM46.1179 49.3836C43.0544 46.3092 41.5148 44.6235 41.4064 42.5785C41.3956 42.3748 41.3956 42.1706 41.4064 41.9669C41.5237 39.7551 43.3152 37.9636 46.8982 34.3805C50.4812 30.7975 52.2727 29.006 54.4846 28.8887C54.6883 28.8779 54.8925 28.8779 55.0962 28.8887C57.308 29.006 59.0995 30.7975 62.6825 34.3805C66.2656 37.9636 68.0571 39.7551 68.1744 41.9669C68.1852 42.1706 68.1852 42.3748 68.1744 42.5785C68.0659 44.6232 66.5268 46.3087 63.4643 49.3823C63.2139 49.6335 62.9533 49.8941 62.6825 50.1649C60.7521 52.0953 59.3417 53.5057 58.1055 54.4144C57.9644 54.5181 57.8256 54.6152 57.6886 54.7059C56.7974 55.2954 55.9804 55.6098 55.0962 55.6567C54.8925 55.6675 54.6883 55.6675 54.4846 55.6567C53.5999 55.6098 52.7824 55.295 51.8906 54.7049C51.754 54.6145 51.6156 54.5176 51.475 54.4142C50.2388 53.5055 48.8285 52.0951 46.8982 50.1649C46.6279 49.8946 46.3678 49.6345 46.1179 49.3836ZM50.9345 70.3768C51.5824 69.4695 51.9552 68.6512 52.0606 67.7815C52.0722 67.6861 52.0805 67.5901 52.0857 67.4933C52.0965 67.2896 52.0965 67.0854 52.0857 66.8817C52.0805 66.7849 52.0722 66.6889 52.0606 66.5935C51.9552 65.7238 51.5824 64.9055 50.9345 63.9982C50.1526 62.9031 48.9702 61.6783 47.3742 60.0766C47.1242 59.8257 46.8641 59.5656 46.5938 59.2953C44.6636 57.3651 43.2533 55.9548 42.0171 55.046C41.8764 54.9426 41.738 54.8458 41.6014 54.7553C40.7096 54.1652 39.8922 53.8504 39.0075 53.8035C38.8037 53.7927 38.5996 53.7927 38.3958 53.8035C36.184 53.9208 34.3925 55.7123 30.8095 59.2953C27.2265 62.8784 25.435 64.6699 25.3177 66.8817C25.3069 67.0854 25.3069 67.2896 25.3177 67.4933C25.435 69.7051 27.2265 71.4967 30.8095 75.0797C34.3925 78.6627 36.184 80.4542 38.3958 80.5715C38.5996 80.5823 38.8037 80.5823 39.0075 80.5715C41.2193 80.4542 43.0108 78.6627 46.5938 75.0797C48.59 73.0835 50.0302 71.6434 50.9345 70.3768ZM71.5598 72.3735C72.1939 71.7688 72.9142 71.0491 73.8272 70.1361C74.7401 69.2231 75.4599 68.5028 76.0645 67.8688C76.3112 67.6101 76.5203 67.3849 76.6979 67.1875C76.5203 66.9901 76.3112 66.7649 76.0645 66.5062C75.4599 65.8722 74.7401 65.1519 73.8272 64.2389C72.9142 63.3259 72.1939 62.6062 71.5598 62.0015C71.3012 61.7548 71.076 61.5458 70.8786 61.3681C70.6812 61.5458 70.456 61.7548 70.1973 62.0015C69.5632 62.6062 68.8429 63.3259 67.93 64.2389C67.017 65.1519 66.2973 65.8722 65.6926 66.5062C65.4459 66.7649 65.2369 66.9901 65.0592 67.1875C65.2369 67.3849 65.4459 67.6101 65.6926 67.8688C66.2973 68.5028 67.017 69.2231 67.93 70.1361C68.8429 71.0491 69.5632 71.7688 70.1973 72.3735C70.456 72.6202 70.6812 72.8292 70.8786 73.0069C71.076 72.8292 71.3012 72.6202 71.5598 72.3735ZM39.3829 72.3735C40.017 71.7688 40.7373 71.0491 41.6503 70.1361C42.5632 69.2231 43.283 68.5028 43.8876 67.8688C44.1343 67.6101 44.3434 67.3849 44.521 67.1875C44.3434 66.9901 44.1343 66.7649 43.8876 66.5062C43.283 65.8722 42.5632 65.1519 41.6503 64.2389C40.7373 63.3259 40.017 62.6062 39.3829 62.0015C39.1243 61.7548 38.8991 61.5458 38.7017 61.3681C38.5043 61.5458 38.2791 61.7548 38.0204 62.0015C37.3863 62.6062 36.666 63.3259 35.7531 64.2389C34.8401 65.1519 34.1204 65.8722 33.5157 66.5062C33.269 66.7649 33.06 66.9901 32.8823 67.1875C33.06 67.3849 33.269 67.6101 33.5157 67.8688C34.1204 68.5028 34.8401 69.2231 35.7531 70.1361C36.666 71.0491 37.3863 71.7688 38.0204 72.3735C38.2791 72.6202 38.5043 72.8292 38.7017 73.0069C38.8991 72.8292 39.1243 72.6202 39.3829 72.3735Z" fill="white"/>
<defs>
<linearGradient id="paint0_linear_381_102" x1="78.1649" y1="6.47314" x2="78.1649" y2="102.646" gradientUnits="userSpaceOnUse">
<stop stop-color="white"/>
<stop offset="0.734375" stop-color="#07A877"/>
</linearGradient>
</defs>
</svg>
