<svg width="107" height="107" viewBox="0 0 107 107" fill="none" xmlns="http://www.w3.org/2000/svg">
<path d="M0 53.3086C0 28.5249 0 16.133 7.52802 8.29594C7.77882 8.03484 8.03484 7.77882 8.29594 7.52802C16.133 0 28.5249 0 53.3086 0C78.0923 0 90.4841 0 98.3212 7.52802C98.5823 7.77882 98.8383 8.03484 99.0891 8.29594C106.617 16.133 106.617 28.5249 106.617 53.3086C106.617 78.0923 106.617 90.4841 99.0891 98.3212C98.8383 98.5823 98.5823 98.8383 98.3212 99.0891C90.4841 106.617 78.0923 106.617 53.3086 106.617C28.5249 106.617 16.133 106.617 8.29594 99.0891C8.03484 98.8383 7.77882 98.5823 7.52802 98.3212C0 90.4841 0 78.0923 0 53.3086Z" fill="white"/>
<rect x="3.78833" y="3.78784" width="99.0414" height="99.0414" rx="21.2144" fill="url(#paint0_linear_372_112)"/>
<rect x="9.09762" y="9.09725" width="88.4226" height="88.4226" rx="14.8459" stroke="white" stroke-width="12.725"/>
<path d="M45.3737 71.9032C43.8705 71.9032 44.1261 71.3357 43.6076 69.9044L39.1877 55.3585L73.2104 35.1742" fill="#C8DAEA"/>
<path d="M45.3735 71.9032C46.5334 71.9032 47.0457 71.3728 47.6933 70.7434L53.8792 64.7283L46.163 60.0753" fill="#A9C9DD"/>
<path d="M46.1623 60.0764L64.8593 73.89C66.9931 75.0673 68.5326 74.4576 69.0642 71.9094L76.6749 36.0452C77.4539 32.9213 75.4841 31.5039 73.4427 32.4307L28.7531 49.6628C25.7027 50.8864 25.7209 52.5883 28.1972 53.3465L39.6655 56.9262L66.216 40.1759C67.4694 39.4158 68.62 39.824 67.6759 40.6622" fill="url(#paint1_radial_372_112)"/>
<defs>
<linearGradient id="paint0_linear_372_112" x1="77.2961" y1="3.78784" x2="77.2961" y2="102.48" gradientUnits="userSpaceOnUse">
<stop stop-color="white"/>
<stop offset="0.458333" stop-color="#FF906D"/>
<stop offset="0.95639" stop-color="#6100FF"/>
</linearGradient>
<radialGradient id="paint1_radial_372_112" cx="0" cy="0" r="1" gradientUnits="userSpaceOnUse" gradientTransform="translate(51.6233 36.4816) rotate(90) scale(34.2767 43.2809)">
<stop offset="0.505882" stop-color="white"/>
<stop offset="0.870588" stop-color="#A9C9DD"/>
</radialGradient>
</defs>
</svg>
