<svg width="107" height="107" viewBox="0 0 107 107" fill="none" xmlns="http://www.w3.org/2000/svg">
<path d="M0 53.3086C0 28.5249 0 16.133 7.52802 8.29594C7.77882 8.03484 8.03484 7.77882 8.29594 7.52802C16.133 0 28.5249 0 53.3086 0C78.0923 0 90.4841 0 98.3212 7.52802C98.5823 7.77882 98.8383 8.03484 99.0891 8.29594C106.617 16.133 106.617 28.5249 106.617 53.3086C106.617 78.0923 106.617 90.4841 99.0891 98.3212C98.8383 98.5823 98.5823 98.8383 98.3212 99.0891C90.4841 106.617 78.0923 106.617 53.3086 106.617C28.5249 106.617 16.133 106.617 8.29594 99.0891C8.03484 98.8383 7.77882 98.5823 7.52802 98.3212C0 90.4841 0 78.0923 0 53.3086Z" fill="white"/>
<rect x="3.78833" y="3.78784" width="99.0414" height="99.0414" rx="21.2144" fill="url(#paint0_linear_372_82)"/>
<rect x="9.09762" y="9.09725" width="88.4226" height="88.4226" rx="14.8459" stroke="white" stroke-width="12.725"/>
<path d="M72.2209 35.7522C68.6939 34.102 64.9227 32.9027 60.98 32.2198C60.4958 33.0953 59.9301 34.2728 59.5401 35.2094C55.3489 34.5791 51.1963 34.5791 47.0822 35.2094C46.6922 34.2728 46.1137 33.0953 45.6251 32.2198C41.6782 32.9027 37.9027 34.1064 34.3757 35.7609C27.2618 46.511 25.3333 56.9941 26.2975 67.3283C31.0159 70.8518 35.5885 72.9922 40.084 74.3929C41.1939 72.8653 42.1838 71.2414 43.0366 69.53C41.4125 68.9128 39.8568 68.1512 38.3869 67.267C38.7769 66.9781 39.1583 66.6761 39.5269 66.3653C48.4921 70.5586 58.233 70.5586 67.0912 66.3653C67.464 66.6761 67.8454 66.9781 68.2311 67.267C66.7568 68.1555 65.197 68.9171 63.5728 69.5344C64.4256 71.2414 65.4112 72.8697 66.5255 74.3972C71.0252 72.9966 75.6021 70.8562 80.3205 67.3283C81.4518 55.3483 78.3877 44.9615 72.2209 35.7522ZM44.258 60.9728C41.5668 60.9728 39.3597 58.4604 39.3597 55.4008C39.3597 52.3412 41.5196 49.8244 44.258 49.8244C46.9965 49.8244 49.2035 52.3368 49.1564 55.4008C49.1606 58.4604 46.9965 60.9728 44.258 60.9728ZM62.36 60.9728C59.6687 60.9728 57.4616 58.4604 57.4616 55.4008C57.4616 52.3412 59.6215 49.8244 62.36 49.8244C65.0984 49.8244 67.3054 52.3368 67.2583 55.4008C67.2583 58.4604 65.0984 60.9728 62.36 60.9728Z" fill="url(#paint1_radial_372_82)"/>
<defs>
<linearGradient id="paint0_linear_372_82" x1="77.2961" y1="3.78784" x2="77.2961" y2="102.48" gradientUnits="userSpaceOnUse">
<stop stop-color="white"/>
<stop offset="0.458333" stop-color="#FF906D"/>
<stop offset="0.95639" stop-color="#6100FF"/>
</linearGradient>
<radialGradient id="paint1_radial_372_82" cx="0" cy="0" r="1" gradientUnits="userSpaceOnUse" gradientTransform="translate(53.3091 36.5366) rotate(90) scale(34.1647 46.7421)">
<stop offset="0.505882" stop-color="white"/>
<stop offset="0.870588" stop-color="#A9C9DD"/>
</radialGradient>
</defs>
</svg>
