<svg width="107" height="107" viewBox="0 0 107 107" fill="none" xmlns="http://www.w3.org/2000/svg">
<path d="M0 53.3086C0 28.5249 0 16.133 7.52802 8.29594C7.77882 8.03484 8.03484 7.77882 8.29594 7.52802C16.133 0 28.5249 0 53.3086 0C78.0923 0 90.4841 0 98.3212 7.52802C98.5823 7.77882 98.8383 8.03484 99.0891 8.29594C106.617 16.133 106.617 28.5249 106.617 53.3086C106.617 78.0923 106.617 90.4841 99.0891 98.3212C98.8383 98.5823 98.5823 98.8383 98.3212 99.0891C90.4841 106.617 78.0923 106.617 53.3086 106.617C28.5249 106.617 16.133 106.617 8.29594 99.0891C8.03484 98.8383 7.77882 98.5823 7.52802 98.3212C0 90.4841 0 78.0923 0 53.3086Z" fill="white"/>
<rect x="3.78833" y="3.78784" width="99.0414" height="99.0414" rx="21.2144" fill="url(#paint0_linear_372_103)"/>
<rect x="9.09762" y="9.09725" width="88.4226" height="88.4226" rx="14.8459" stroke="white" stroke-width="12.725"/>
<path d="M79.7349 32.5595C77.5711 34.0857 75.1755 35.253 72.6401 36.0165C71.2792 34.4518 69.4707 33.3428 67.4591 32.8395C65.4475 32.3361 63.3298 32.4627 61.3924 33.2022C59.4551 33.9416 57.7916 35.2582 56.6269 36.9739C55.4623 38.6896 54.8526 40.7215 54.8804 42.795V45.0545C50.9096 45.1575 46.975 44.2768 43.427 42.491C39.879 40.7051 36.8277 38.0696 34.5449 34.819C34.5449 34.819 25.5069 55.1545 45.8424 64.1925C41.189 67.3512 35.6456 68.935 30.0259 68.7115C50.3614 80.009 75.2159 68.7115 75.2159 42.7272C75.2138 42.0978 75.1533 41.47 75.0351 40.8518C77.3412 38.5776 78.9685 35.7063 79.7349 32.5595V32.5595Z" fill="url(#paint1_radial_372_103)"/>
<defs>
<linearGradient id="paint0_linear_372_103" x1="77.2961" y1="3.78784" x2="77.2961" y2="102.48" gradientUnits="userSpaceOnUse">
<stop stop-color="white"/>
<stop offset="0.458333" stop-color="#FF906D"/>
<stop offset="0.95639" stop-color="#6100FF"/>
</linearGradient>
<radialGradient id="paint1_radial_372_103" cx="0" cy="0" r="1" gradientUnits="userSpaceOnUse" gradientTransform="translate(54.8804 36.6863) rotate(90) scale(32.8414 42.6441)">
<stop offset="0.505882" stop-color="white"/>
<stop offset="0.870588" stop-color="#A9C9DD"/>
</radialGradient>
</defs>
</svg>
