<svg width="456" height="108" viewBox="0 0 456 108" fill="none" xmlns="http://www.w3.org/2000/svg">
<path d="M0.178223 53.8708C0.178223 29.0871 0.178223 16.6953 7.70624 8.85819C7.95704 8.5971 8.21306 8.34107 8.47416 8.09028C16.3113 0.562256 28.7031 0.562256 53.4868 0.562256C78.2705 0.562256 90.6623 0.562256 98.4994 8.09028C98.7605 8.34107 99.0165 8.5971 99.2673 8.85819C106.795 16.6953 106.795 29.0871 106.795 53.8708C106.795 78.6545 106.795 91.0464 99.2673 98.8835C99.0165 99.1446 98.7605 99.4006 98.4994 99.6514C90.6623 107.179 78.2705 107.179 53.4868 107.179C28.7031 107.179 16.3113 107.179 8.47416 99.6514C8.21306 99.4006 7.95704 99.1446 7.70624 98.8835C0.178223 91.0464 0.178223 78.6545 0.178223 53.8708Z" fill="white"/>
<rect x="13.7341" y="14.1178" width="79.5061" height="79.5061" rx="17.03" fill="url(#paint0_linear_19_46)"/>
<path d="M50.6862 18.009C50.6862 18.009 75.8353 29.9598 75.8353 41.9104C75.8353 53.8609 50.6862 33.6055 50.6862 45.3536C50.6862 57.1018 95.5268 89.2089 71.7118 89.2089C47.8969 89.2089 17.9955 57.4009 17.9955 45.078" stroke="white" stroke-width="10.2151" stroke-linejoin="round"/>
<rect x="17.9963" y="18.3799" width="70.9818" height="70.9818" rx="11.9176" stroke="white" stroke-width="10.2151"/>
<path d="M453.061 22.0914C451.437 20.5677 449.142 19.6466 446.403 19.2261V19.0312C448.829 18.6867 450.716 17.7788 452.007 16.3942C453.338 14.9668 454.012 13.0569 454.012 10.803C454.012 7.34429 452.555 4.70354 449.785 2.94015C447.031 1.18719 443 0.312256 437.858 0.312256C431.59 0.312256 426.922 1.69187 423.816 4.11974C420.702 6.55419 419.186 10.0206 419.186 14.1212V14.4072V14.6572H419.436H428.533H428.783V14.4072V14.1212C428.783 12.2098 429.203 10.9866 430.386 10.2111C431.605 9.41204 433.681 9.0506 437.114 9.0506C440.376 9.0506 442.351 9.33937 443.508 9.93136C444.077 10.2224 444.439 10.583 444.664 11.0156C444.891 11.4527 444.988 11.9843 444.988 12.6337C444.988 13.7799 444.636 14.5971 443.928 15.1382C443.205 15.6901 442.069 15.988 440.432 15.988H434.308H434.058V16.238V23.2749V23.5249H434.308H441.233C443.017 23.5249 444.311 23.8239 445.156 24.4356C445.983 25.0351 446.418 25.965 446.418 27.3369C446.418 28.1398 446.283 28.7872 445.989 29.3117C445.697 29.833 445.235 30.2547 444.543 30.5871C443.141 31.2606 440.834 31.5493 437.229 31.5493C435.332 31.5493 433.853 31.46 432.701 31.2684C431.547 31.0766 430.738 30.7849 430.169 30.3921C429.058 29.6252 428.783 28.4157 428.783 26.4787V25.5633V25.3133H428.533H419.436H419.186V25.5633V26.4787C419.186 30.7727 420.625 34.2423 423.68 36.6303C426.724 39.01 431.337 40.2876 437.629 40.2876C443.23 40.2876 447.731 39.3122 450.841 37.375C453.966 35.4285 455.672 32.5177 455.672 28.7099C455.672 25.8471 454.734 23.6609 453.061 22.0914Z" fill="white" stroke="white" stroke-width="0.5"/>
<path d="M274.077 79.948V60.1135C274.077 53.4756 276.527 50.2357 284.508 50.2357C291.17 50.2357 294.086 52.6064 294.086 59.2442V79.948H305.989V55.6882C305.989 46.5217 301.419 39.5677 290.751 39.5677C279.719 39.5677 274.424 45.7315 273.16 52.4483V23.416H262.224V79.948H274.077Z" fill="white"/>
<path d="M159.251 79.948V50.1567H171.5V40.3579H158.777C158.461 36.4859 160.072 32.7406 166.126 32.7406H171.5V24.1272H168.023C145.314 23.0803 147.635 40.3579 147.635 40.3579H141.788V50.1567H147.398V79.948H159.251Z" fill="white"/>
<path fill-rule="evenodd" clip-rule="evenodd" d="M186.398 80.7382C195.169 80.7382 201.333 77.0242 203.151 70.8605V79.948H214.214V56.7155C214.214 46.3636 207.102 39.5677 193.905 39.5677C180.866 39.5677 173.517 44.5691 173.517 54.3678H185.45C185.45 49.8636 187.899 49.1334 193.905 49.1334C200.227 49.1334 202.519 50.8234 202.519 55.9598V58.0589L185.529 59.7974C177.073 60.6666 172.727 64.3016 172.727 70.1493C172.727 76.7871 177.864 80.7382 186.398 80.7382ZM184.66 69.3591C184.66 67.4625 185.924 66.6723 188.769 66.4352L202.519 64.8548C202.202 70.4654 197.856 72.3619 189.796 72.3619C186.319 72.3619 184.66 71.4926 184.66 69.3591Z" fill="white"/>
<path d="M258.627 68.4108C258.627 75.8389 251.278 80.7382 239.029 80.7382C225.674 80.7382 218.325 75.5228 218.325 66.3562V66.1191H230.179V66.8303C230.179 70.3863 232.391 71.3346 239.108 71.3346C245.43 71.3346 246.931 70.3073 246.931 67.9367C246.931 65.724 245.746 65.0919 241.084 64.4597L229.942 63.1163C222.039 62.2471 217.614 58.6911 217.614 52.0532C217.614 45.0993 223.541 39.5677 237.133 39.5677C250.092 39.5677 257.441 44.4671 257.441 54.1078V54.3449H245.588V53.8707C245.588 50.6308 244.008 48.9714 236.738 48.9714C230.811 48.9714 229.309 49.9986 229.309 52.5274C229.309 54.5819 230.416 55.4512 235.631 56.0833L244.087 57.1106C254.676 58.296 258.627 61.852 258.627 68.4108Z" fill="white"/>
<path d="M323.284 23.416V32.7406H311.431V23.416H323.284Z" fill="white"/>
<path d="M323.284 40.3579V79.948H311.431V40.3579H323.284Z" fill="white"/>
<path fill-rule="evenodd" clip-rule="evenodd" d="M349.402 80.7382C362.915 80.7382 372.002 72.678 372.002 60.1925C372.002 47.549 362.915 39.5677 349.402 39.5677C335.889 39.5677 326.802 47.549 326.802 60.1925C326.802 72.678 335.889 80.7382 349.402 80.7382ZM347.476 50.0111C344.127 50.0208 342.325 50.1152 341.007 51.0355C340.458 51.4188 339.981 51.896 339.597 52.4451C338.572 53.9139 338.572 55.9842 338.572 60.1249C338.572 64.2655 338.572 66.3358 339.597 67.8046C339.981 68.3537 340.458 68.8309 341.007 69.2143C342.476 70.2397 344.546 70.2397 348.687 70.2397C352.827 70.2397 356.318 70.2397 357.787 69.2143C358.336 68.8309 358.813 68.3537 359.197 67.8046C360.157 66.4295 360.218 64.5272 360.222 60.8924C360.226 60.6647 360.228 60.4314 360.228 60.1925C360.228 59.9573 360.226 59.7275 360.222 59.503C360.219 55.7731 360.169 53.8385 359.197 52.4451C358.813 51.896 358.336 51.4188 357.787 51.0355C356.783 50.3348 354.836 50.1129 352.382 50.0426C351.466 50.0022 350.473 49.9986 349.402 49.9986C348.729 49.9986 348.087 50.0001 347.476 50.0111Z" fill="white"/>
<path d="M387.511 59.9554V79.948H375.658V40.3579H386.642V52.5274C387.669 45.8895 393.122 39.5677 403.473 39.5677C414.299 39.5677 419.436 46.5217 419.436 55.2931V79.948H407.583V59.2442C407.583 52.9225 404.975 50.2357 397.705 50.2357C390.198 50.2357 387.511 53.2385 387.511 59.9554Z" fill="white"/>
<defs>
<linearGradient id="paint0_linear_19_46" x1="72.7429" y1="14.1178" x2="72.7429" y2="93.3434" gradientUnits="userSpaceOnUse">
<stop stop-color="white"/>
<stop offset="0.458333" stop-color="#FF906D"/>
<stop offset="0.95639" stop-color="#6100FF"/>
</linearGradient>
</defs>
</svg>
