<svg width="107" height="107" viewBox="0 0 107 107" fill="none" xmlns="http://www.w3.org/2000/svg">
<path d="M0 53.3086C0 28.5249 0 16.133 7.52802 8.29594C7.77882 8.03484 8.03484 7.77882 8.29594 7.52802C16.133 0 28.5249 0 53.3086 0C78.0923 0 90.4841 0 98.3212 7.52802C98.5823 7.77882 98.8383 8.03484 99.0891 8.29594C106.617 16.133 106.617 28.5249 106.617 53.3086C106.617 78.0923 106.617 90.4841 99.0891 98.3212C98.8383 98.5823 98.5823 98.8383 98.3212 99.0891C90.4841 106.617 78.0923 106.617 53.3086 106.617C28.5249 106.617 16.133 106.617 8.29594 99.0891C8.03484 98.8383 7.77882 98.5823 7.52802 98.3212C0 90.4841 0 78.0923 0 53.3086Z" fill="white"/>
<rect x="13.5559" y="13.5555" width="79.5061" height="79.5061" rx="17.03" fill="url(#paint0_linear_19_54)"/>
<path d="M50.508 17.4468C50.508 17.4468 75.6571 29.3976 75.6571 41.3481C75.6571 53.2986 50.508 33.0433 50.508 44.7914C50.508 56.5395 95.3486 88.6466 71.5336 88.6466C47.7187 88.6466 17.8173 56.8386 17.8173 44.5157" stroke="white" stroke-width="10.2151" stroke-linejoin="round"/>
<rect x="17.8181" y="17.8176" width="70.9818" height="70.9818" rx="11.9176" stroke="white" stroke-width="10.2151"/>
<defs>
<linearGradient id="paint0_linear_19_54" x1="72.5647" y1="13.5555" x2="72.5647" y2="92.7812" gradientUnits="userSpaceOnUse">
<stop stop-color="white"/>
<stop offset="0.458333" stop-color="#FF906D"/>
<stop offset="0.95639" stop-color="#6100FF"/>
</linearGradient>
</defs>
</svg>
