<svg width="109" height="110" viewBox="0 0 109 110" fill="none" xmlns="http://www.w3.org/2000/svg">
<path d="M43.1996 43.6023L19.0974 19.5" stroke="white" stroke-width="9"/>
<path d="M65.5282 43.6023L89.6305 19.5" stroke="white" stroke-width="9"/>
<path d="M89.6306 90.0334L67.9292 68.332" stroke="white" stroke-width="9"/>
<path d="M19.0973 90.0334L40.7987 68.332" stroke="white" stroke-width="9"/>
<rect x="10.6071" y="11.3423" width="87.5137" height="87.5137" rx="20.5113" stroke="url(#paint0_linear_276_102)" stroke-width="9"/>
<rect x="10.6071" y="11.3423" width="87.5137" height="87.5137" rx="20.5113" stroke="url(#paint1_linear_276_102)" stroke-width="9"/>
<path d="M62.6958 38.2989L64.7477 39.4836C67.4056 41.0181 69.1165 42.0117 70.3632 42.9052C71.5294 43.7411 71.9876 44.2844 72.2646 44.7643C72.5416 45.2441 72.7831 45.9125 72.9239 47.3405C73.0743 48.8669 73.0794 50.8454 73.0794 53.9145V56.2837C73.0794 59.3528 73.0743 61.3313 72.9239 62.8578C72.7831 64.2857 72.5416 64.9541 72.2646 65.4339C71.9876 65.9138 71.5294 66.4571 70.3632 67.293C69.1165 68.1865 67.4056 69.1801 64.7477 70.7147L62.6959 71.8993C60.0379 73.4338 58.322 74.4187 56.9248 75.0516C55.6178 75.6437 54.9182 75.7688 54.3642 75.7688C53.8101 75.7688 53.1105 75.6437 51.8035 75.0516C50.4063 74.4187 48.6904 73.4338 46.0325 71.8993L43.9806 70.7147C41.3227 69.1801 39.6118 68.1865 38.3651 67.293C37.1989 66.4571 36.7408 65.9138 36.4637 65.4339C36.1867 64.9541 35.9452 64.2857 35.8044 62.8578C35.654 61.3313 35.6489 59.3528 35.6489 56.2837V53.9145C35.6489 50.8454 35.654 48.8669 35.8044 47.3405C35.9452 45.9125 36.1867 45.2441 36.4637 44.7643C36.7408 44.2844 37.1989 43.7411 38.3651 42.9052C39.6118 42.0117 41.3227 41.0181 43.9806 39.4836L46.0325 38.2989C48.6904 36.7644 50.4063 35.7795 51.8035 35.1466C53.1105 34.5545 53.8101 34.4295 54.3642 34.4295C54.9182 34.4295 55.6178 34.5545 56.9248 35.1466C58.322 35.7795 60.0379 36.7644 62.6958 38.2989Z" stroke="white" stroke-width="9"/>
<defs>
<linearGradient id="paint0_linear_276_102" x1="77.7388" y1="6.84229" x2="77.7388" y2="103.016" gradientUnits="userSpaceOnUse">
<stop stop-color="white"/>
<stop offset="0.495283" stop-color="#81EECD"/>
<stop offset="0.763621" stop-color="#8976FF"/>
<stop offset="0.95639" stop-color="#EFEFEF"/>
</linearGradient>
<linearGradient id="paint1_linear_276_102" x1="77.7388" y1="9.51534" x2="77.7388" y2="102.343" gradientUnits="userSpaceOnUse">
<stop stop-color="white"/>
<stop offset="0.260816" stop-color="#887CFD"/>
<stop offset="0.529438" stop-color="#81EECD"/>
<stop offset="0.798061" stop-color="#8976FF"/>
<stop offset="0.95639" stop-color="#EFEFEF"/>
</linearGradient>
</defs>
</svg>
