<svg width="109" height="110" viewBox="0 0 109 110" fill="none" xmlns="http://www.w3.org/2000/svg">
<path fill-rule="evenodd" clip-rule="evenodd" d="M29.9944 93.3086C35.674 94.0218 43.2273 94.0385 54.4221 94.0385C65.6168 94.0385 73.1701 94.0218 78.8497 93.3086C84.3051 92.6236 86.7655 91.4229 88.4156 89.9416C88.8432 89.5577 89.2498 89.151 89.6337 88.7234C91.1151 87.0734 92.3157 84.6129 93.0008 79.1576C93.714 73.478 93.7306 65.9247 93.7306 54.7299C93.7306 43.5352 93.714 35.9819 93.0008 30.3023C92.3157 24.847 91.1151 22.3865 89.6337 20.7364C89.2498 20.3088 88.8432 19.9022 88.4156 19.5183C86.7655 18.0369 84.3051 16.8363 78.8497 16.1512C73.1701 15.438 65.6168 15.4214 54.4221 15.4214C43.2273 15.4214 35.674 15.438 29.9944 16.1512C24.5391 16.8363 22.0787 18.0369 20.4286 19.5183C20.001 19.9022 19.5943 20.3088 19.2104 20.7364C17.7291 22.3865 16.5284 24.847 15.8434 30.3023C15.1302 35.9819 15.1135 43.5352 15.1135 54.7299C15.1135 65.9247 15.1302 73.478 15.8434 79.1576C16.5284 84.6129 17.7291 87.0734 19.2104 88.7234C19.5943 89.151 20.001 89.5577 20.4286 89.9416C22.0787 91.4229 24.5391 92.6236 29.9944 93.3086ZM12.5133 14.7241C6.11353 21.8527 6.11353 32.8118 6.11353 54.7299C6.11353 76.6481 6.11353 87.6072 12.5133 94.7358C13.113 95.4038 13.7482 96.039 14.4162 96.6387C21.5449 103.038 32.5039 103.038 54.4221 103.038C76.3402 103.038 87.2993 103.038 94.428 96.6387C95.0959 96.039 95.7311 95.4038 96.3308 94.7358C102.731 87.6072 102.731 76.6481 102.731 54.7299C102.731 32.8118 102.731 21.8527 96.3308 14.7241C95.7311 14.0561 95.0959 13.4209 94.428 12.8212C87.2993 6.42139 76.3402 6.42139 54.4221 6.42139C32.5039 6.42139 21.5449 6.42139 14.4162 12.8212C13.7482 13.4209 13.113 14.0561 12.5133 14.7241Z" fill="url(#paint0_linear_380_501)"/>
<path fill-rule="evenodd" clip-rule="evenodd" d="M58.422 55.6368H50.4218C46.9961 55.6368 44.96 55.6444 43.4583 55.7797C42.5754 55.8592 42.1987 55.9621 42.0911 55.9982C41.7236 56.2169 41.4166 56.5239 41.1979 56.8913C41.1618 56.999 41.0589 57.3757 40.9794 58.2586C40.8441 59.7603 40.8365 61.7964 40.8365 65.2221C40.8365 68.6477 40.8441 70.6838 40.9794 72.1856C41.0589 73.0685 41.1618 73.4452 41.1979 73.5528C41.4166 73.9203 41.7236 74.2273 42.0911 74.446C42.1987 74.4821 42.5754 74.585 43.4583 74.6645C44.96 74.7997 46.9962 74.8073 50.4218 74.8073H58.422C61.8476 74.8073 63.8837 74.7997 65.3855 74.6645C66.2684 74.585 66.6451 74.4821 66.7527 74.446C67.1202 74.2273 67.4272 73.9203 67.6459 73.5528C67.682 73.4452 67.7849 73.0685 67.8644 72.1856C67.9996 70.6838 68.0072 68.6477 68.0072 65.2221C68.0072 61.7964 67.9996 59.7603 67.8644 58.2586C67.7849 57.3757 67.682 56.999 67.6459 56.8913C67.4272 56.5239 67.1202 56.2169 66.7527 55.9982C66.6451 55.9621 66.2684 55.8592 65.3855 55.7797C63.8837 55.6444 61.8476 55.6368 58.422 55.6368ZM66.7872 56.0114C66.7867 56.0116 66.7791 56.0089 66.7658 56.0027C66.781 56.0081 66.7877 56.0112 66.7872 56.0114ZM67.6327 56.8569C67.6329 56.8564 67.6359 56.8631 67.6414 56.8783C67.6352 56.865 67.6325 56.8573 67.6327 56.8569ZM67.6327 73.5873C67.6325 73.5868 67.6352 73.5792 67.6414 73.5659C67.6359 73.5811 67.6329 73.5878 67.6327 73.5873ZM66.7872 74.4328C66.7877 74.433 66.781 74.436 66.7658 74.4415C66.7791 74.4353 66.7867 74.4326 66.7872 74.4328ZM42.0566 74.4328C42.057 74.4326 42.0647 74.4353 42.0781 74.4415C42.0628 74.4361 42.0561 74.433 42.0566 74.4328ZM41.2111 73.5873C41.2109 73.5878 41.2078 73.5811 41.2024 73.5658C41.2086 73.5792 41.2113 73.5868 41.2111 73.5873ZM41.2111 56.8569C41.2113 56.8573 41.2086 56.865 41.2024 56.8784C41.2078 56.8631 41.2109 56.8564 41.2111 56.8569ZM42.0566 56.0114C42.0561 56.0112 42.0628 56.0081 42.0781 56.0027C42.0647 56.0088 42.057 56.0116 42.0566 56.0114ZM34.2132 52.9388C32.8115 55.3853 32.8115 58.6642 32.8115 65.2221C32.8115 71.78 32.8115 75.0589 34.2132 77.5054C35.1494 79.1395 36.5044 80.4945 38.1385 81.4307C40.585 82.8324 43.8639 82.8324 50.4218 82.8324H58.422C64.9799 82.8324 68.2588 82.8324 70.7053 81.4307C72.3394 80.4945 73.6944 79.1395 74.6306 77.5054C76.0323 75.0589 76.0323 71.78 76.0323 65.2221C76.0323 58.6642 76.0323 55.3853 74.6306 52.9388C73.6944 51.3047 72.3394 49.9497 70.7053 49.0135C68.2588 47.6118 64.9798 47.6118 58.422 47.6118H50.4218C43.8639 47.6118 40.585 47.6118 38.1385 49.0135C36.5044 49.9497 35.1494 51.3047 34.2132 52.9388Z" fill="white"/>
<path fill-rule="evenodd" clip-rule="evenodd" d="M64.1111 37.6643C63.6822 37.0157 63.1882 36.4102 62.6357 35.8577C61.5571 34.7791 60.2766 33.9235 58.8673 33.3397C57.4579 32.756 55.9475 32.4555 54.422 32.4555C52.8966 32.4555 51.3861 32.756 49.9768 33.3397C48.5675 33.9235 47.287 34.7791 46.2083 35.8578C45.6558 36.4102 45.1618 37.0157 44.7329 37.6643L64.1111 37.6643ZM71.0732 37.1743C72.5691 40.7856 69.2764 44.0715 65.3675 44.0715L43.4765 44.0715C39.5677 44.0715 36.275 40.7856 37.7708 37.1743C38.6766 34.9876 40.0042 33.0008 41.6778 31.3272C43.3514 29.6536 45.3382 28.326 47.5249 27.4203C49.7115 26.5145 52.0552 26.0483 54.422 26.0483C56.7889 26.0483 59.1325 26.5145 61.3192 27.4203C63.5058 28.326 65.4927 29.6536 67.1663 31.3272C68.8399 33.0008 70.1675 34.9876 71.0732 37.1743Z" fill="white"/>
<defs>
<linearGradient id="paint0_linear_380_501" x1="77.822" y1="6.42139" x2="77.822" y2="102.698" gradientUnits="userSpaceOnUse">
<stop stop-color="#FF5B28"/>
<stop offset="0.95639" stop-color="#CC227C"/>
</linearGradient>
</defs>
</svg>
